<svg width="196" height="70" viewBox="0 0 196 70" fill="none" xmlns="http://www.w3.org/2000/svg">
<g clip-path="url(#clip0)">
<g opacity="0.2">
<path opacity="0.2" d="M48.9405 69.6925C75.9696 69.6925 97.881 66.7652 97.881 63.1542C97.881 59.5432 75.9696 56.616 48.9405 56.616C21.9114 56.616 0 59.5432 0 63.1542C0 66.7652 21.9114 69.6925 48.9405 69.6925Z" fill="#242568"/>
</g>
<path d="M31.2294 62.9615H13.0651C2.20958 62.9615 2.20958 53.3071 13.0651 53.3071H24.5439" fill="black"/>
<g opacity="0.3">
<path opacity="0.3" d="M31.2295 62.9616H13.0652C7.92072 62.9616 5.21251 60.7973 4.94055 58.5197C6.28899 59.5508 8.43064 60.2647 11.3768 60.2647H29.3598L31.2295 62.9616Z" fill="#262626"/>
</g>
<g opacity="0.55">
<path opacity="0.55" d="M31.2294 62.9616H31.0934L25.1557 54.3837H13.677C7.39936 54.3837 4.7478 57.6132 5.73363 60.3441C3.47868 57.4772 5.91494 53.2959 13.0651 53.2959H24.5438L31.2294 62.9616Z" fill="white"/>
</g>
<path d="M83.8191 64.2311C83.5698 64.2424 83.3205 64.2424 83.0599 64.2424H44.6123C44.2723 64.2311 43.9437 64.2084 43.6378 64.1858C32.3743 63.2679 37.2355 53.5342 57.5754 54.2254L39.0259 41.6022C40.227 40.3671 41.4848 39.2339 42.7879 38.2028C47.3545 34.588 52.431 32.2878 57.3828 31.2906C63.6151 30.0328 69.6661 30.8487 74.312 33.7268C79.7284 37.081 83.2412 43.2339 82.9126 52.1858C83.7284 52.2878 84.499 52.4464 85.2242 52.6504C85.8361 52.8203 86.414 53.013 86.9579 53.2396C94.4026 56.2651 95.5018 63.9138 83.8191 64.2311Z" fill="white"/>
<path d="M83.0595 64.3214H44.6119C44.3059 64.3101 43.9773 64.2987 43.626 64.2647C39.8187 63.9588 37.5184 62.5764 37.6317 60.65C37.7223 58.9843 39.66 57.2619 42.7988 56.0494C45.3824 55.0523 49.9943 53.9191 57.2917 54.1344L38.9008 41.6132L38.9688 41.5452C40.1586 40.3214 41.4277 39.1769 42.7422 38.1458C47.1728 34.6443 52.2266 32.2534 57.3711 31.2222C63.7167 29.9418 69.745 30.8143 74.3569 33.6698C80.2153 37.2959 83.2861 43.8455 83.0028 52.1174C83.7733 52.2194 84.5325 52.3781 85.2578 52.5707C85.8583 52.7407 86.4476 52.9333 87.0028 53.1599C90.7535 54.6897 93.0651 57.4999 92.6119 59.9928C92.1359 62.599 88.9405 64.1628 83.8187 64.3101C83.5807 64.3101 83.3314 64.3214 83.0595 64.3214ZM55.5014 54.2704C49.2577 54.2704 45.2238 55.2902 42.8668 56.2081C39.7847 57.3979 37.8923 59.0636 37.8017 60.6613C37.6997 62.4857 39.932 63.8001 43.6487 64.1061C44 64.1288 44.3172 64.1514 44.6232 64.1628H83.0595C83.3427 64.1628 83.5807 64.1628 83.8187 64.1514C88.8498 64.0154 92 62.497 92.4532 59.9701C92.8952 57.5452 90.6289 54.8143 86.9461 53.3072C86.4022 53.0806 85.8243 52.888 85.2238 52.7293C84.4872 52.5254 83.7053 52.3667 82.9235 52.2647L82.8555 52.2534V52.1741C83.1614 43.9248 80.1133 37.3979 74.2889 33.7945C69.711 30.9616 63.7167 30.1004 57.4164 31.3696C52.2946 32.4007 47.2634 34.7803 42.8555 38.2704C41.575 39.2902 40.3286 40.4007 39.1728 41.5905L57.881 54.3157L57.5977 54.3044C56.8611 54.2817 56.1699 54.2704 55.5014 54.2704Z" fill="#242568"/>
<path d="M31.2295 63.4829H13.0652C7.10482 63.4829 4.39661 60.7067 4.39661 58.1231C4.39661 55.5395 7.10482 52.7633 13.0652 52.7633H24.5439C24.8385 52.7633 25.0765 53.0013 25.0765 53.2959C25.0765 53.5905 24.8385 53.8285 24.5439 53.8285H13.0652C8.06799 53.8285 5.45043 55.9928 5.45043 58.1344C5.45043 60.2761 8.06799 62.4404 13.0652 62.4404H31.2295C31.5241 62.4404 31.762 62.6783 31.762 62.9729C31.762 63.2676 31.5241 63.4829 31.2295 63.4829Z" fill="black"/>
<path d="M65.6543 52.0154C64.9291 54.8029 63.0934 59.2109 60.2945 61.7718L52.9858 58.123C52.9858 58.123 45.8016 54.3497 46.0056 52.7519C46.1869 51.3695 43.7733 41.2845 42.7761 38.2024C43.6033 37.5451 44.4418 36.9446 45.303 36.378C49.1784 33.8058 53.3144 32.106 57.3824 31.2902C57.4277 31.2788 57.9036 31.3695 58.6288 31.6415C61.7676 32.8313 69.4617 37.4092 65.6543 52.0154Z" fill="black"/>
<g opacity="0.55">
<path opacity="0.55" d="M81.9944 44.0267C78.4589 34.2023 68.374 30.3496 57.7677 32.4799C52.8045 33.4771 47.7394 35.7774 43.1728 39.3921C42.0623 40.2647 40.9972 41.2165 39.9547 42.2363L39.0255 41.6018C40.2266 40.3666 41.4844 39.2335 42.7876 38.2023C47.3541 34.5876 52.4306 32.2873 57.3825 31.2901C68.4079 29.0805 78.8669 33.3298 81.9944 44.0267Z" fill="white"/>
</g>
<g opacity="0.3">
<path opacity="0.3" d="M54.7422 35.0409C61.3258 38.0324 64.4533 43.9361 64.5666 52.3553C64.5892 53.9077 63.1728 55.0976 61.6431 54.8369C59.1162 54.395 55.3428 53.9191 52.1586 54.3043C46.8329 54.9389 54.7422 35.0409 54.7422 35.0409Z" fill="#262626"/>
</g>
<path d="M81.4617 42.4403L79.5354 39.4601L77.3711 36.1174C79.4901 34.7463 81.3938 34.8142 82.6289 35.6075C84.6459 36.9219 84.9178 40.208 81.4617 42.4403Z" fill="black"/>
<g opacity="0.55">
<path opacity="0.55" d="M82.7875 36.582C83.4221 36.9899 83.8867 37.5905 84.1133 38.293C84.0906 37.1825 83.5354 36.1967 82.6289 35.6075C81.3824 34.8029 79.4787 34.7463 77.3711 36.1174L77.8697 36.8879C79.8414 35.7321 81.6091 35.8228 82.7875 36.582Z" fill="white"/>
</g>
<path d="M82.9236 52.7179C82.9123 52.7179 82.9123 52.7179 82.901 52.7179C82.6063 52.7066 82.3797 52.4573 82.391 52.174C82.6517 45.1032 80.476 39.4034 76.1134 35.6981C71.5129 31.7887 64.7253 30.3723 57.4959 31.8227C52.442 32.8425 47.4675 35.1881 43.1163 38.6329C41.8245 39.6527 40.578 40.7859 39.3996 41.987C39.1956 42.191 38.867 42.2023 38.6517 41.9983C38.4477 41.7944 38.4364 41.4658 38.6403 41.2505C39.8415 40.0153 41.1219 38.8595 42.459 37.8057C46.9463 34.259 52.0681 31.834 57.2806 30.7915C64.8273 29.2731 71.9435 30.7689 76.7933 34.8935C81.4165 38.8255 83.7168 44.8199 83.4449 52.2193C83.4335 52.4913 83.2069 52.7179 82.9236 52.7179Z" fill="black"/>
<path d="M39.7394 23.4828C46.0737 11.0182 62.6629 21.5792 53.8017 33.4885L39.7394 23.4828Z" fill="black"/>
<g opacity="0.3">
<path opacity="0.3" d="M49.6204 30.5196L53.7903 33.4884C57.0651 29.0918 56.8612 24.8765 54.9915 21.9304C55.1841 25.2958 53.4731 28.8312 49.6204 30.5196Z" fill="#262626"/>
</g>
<g opacity="0.55">
<path opacity="0.55" d="M39.7394 23.4828L40.4986 24.0267C44.9745 16.2873 53.7111 18.6103 56.1133 24.5593C54.4363 17.5565 44.3513 14.395 39.7394 23.4828Z" fill="white"/>
</g>
<path d="M21.1558 27.8681C10.5949 21.3299 -1.07653 36.2194 13.1104 43.8114L21.1558 27.8681Z" fill="black"/>
<g opacity="0.55">
<path opacity="0.55" d="M7.17285 37.9418C5.72242 31.3469 13.2918 25.0239 20.7026 28.7633L21.1559 27.8681C12.9519 22.7803 4.0907 30.633 7.17285 37.9418Z" fill="white"/>
</g>
<path d="M14.1987 52.537C18.0514 64.5937 28.9863 66.2028 40.635 62.4747C52.2951 58.7467 60.2611 51.0979 56.397 39.0413C52.533 26.9846 39.9664 20.2311 28.3064 23.9591C16.6577 27.6872 10.3347 40.4804 14.1987 52.537Z" fill="white"/>
<path d="M30.3571 64.3327C28.2268 64.3327 26.2551 64.0607 24.4761 63.5055C19.4336 61.9531 15.9548 58.2704 14.1305 52.5593C12.2608 46.7123 12.7027 40.5027 15.3769 35.0862C18.0511 29.6698 22.6404 25.6811 28.3061 23.8794C39.9888 20.1401 52.6347 26.9276 56.4987 39.0182C58.3231 44.718 57.6205 49.7378 54.4251 53.9304C51.6262 57.5905 46.8783 60.5706 40.6914 62.5536C36.9747 63.7321 33.4959 64.3327 30.3571 64.3327ZM14.2778 52.514C16.0795 58.1571 19.5356 61.8058 24.5214 63.3468C28.884 64.6953 34.4591 64.3667 40.612 62.395C46.765 60.4233 51.5016 57.4658 54.2664 53.8284C57.4392 49.6811 58.1305 44.7066 56.3174 39.0636C52.4761 27.0636 39.9208 20.3214 28.3288 24.0381C22.7084 25.8398 18.1531 29.7831 15.5016 35.1655C12.85 40.5367 12.4194 46.701 14.2778 52.514Z" fill="#242568"/>
<g opacity="0.3">
<path opacity="0.3" d="M17.7563 59.1089C22.9575 65.0579 31.5807 65.3752 40.6345 62.4744C52.2833 58.7463 60.2606 51.0976 56.3966 39.0409C54.3796 32.7407 49.983 27.8908 44.5892 25.2279C47.3428 27.8455 49.5071 31.1882 50.7535 35.0976C54.6062 47.1543 46.6402 54.803 34.9915 58.531C28.7139 60.548 22.6289 61.0013 17.7563 59.1089Z" fill="black"/>
</g>
<path d="M30.3456 64.7747C28.17 64.7747 26.153 64.4914 24.3286 63.9361C19.1388 62.3271 15.5581 58.5537 13.6884 52.7067C11.7847 46.735 12.238 40.4121 14.9688 34.8936C17.6997 29.3639 22.3796 25.3072 28.1586 23.4602C40.068 19.6528 52.9745 26.565 56.9065 38.8823C58.7762 44.7293 58.051 49.8851 54.7535 54.2024C51.9093 57.9305 47.0821 60.9673 40.7932 62.9843C37.0651 64.1741 33.5411 64.7747 30.3456 64.7747ZM14.6969 52.3781C16.4532 57.8738 19.8074 61.4319 24.6459 62.9276C28.9292 64.2534 34.4023 63.9248 40.4759 61.9758C46.5496 60.0268 51.1955 57.1259 53.915 53.5679C56.9858 49.5339 57.6544 44.7067 55.898 39.2109C52.136 27.4489 39.83 20.8313 28.4759 24.4687C22.9802 26.2251 18.5156 30.1004 15.9093 35.3696C13.3031 40.6273 12.8725 46.6783 14.6969 52.3781Z" fill="black"/>
<path d="M53.8016 34.0211C53.6883 34.0211 53.5863 33.9871 53.4843 33.9191C53.2464 33.7491 53.2011 33.4092 53.371 33.1825C56.8611 28.4913 55.8639 24.7633 54.9574 22.9503C53.5863 20.1967 50.7535 18.4177 47.762 18.4063C47.7506 18.4063 47.7506 18.4063 47.7393 18.4063C44.6118 18.4063 41.9376 20.2874 40.1926 23.7208C40.0566 23.9814 39.7393 24.0834 39.4787 23.9474C39.2181 23.8114 39.1161 23.4942 39.252 23.2335C41.1557 19.4828 44.2492 17.3412 47.7393 17.3412C47.7506 17.3412 47.7506 17.3412 47.762 17.3412C51.1501 17.3525 54.3455 19.3582 55.8979 22.463C57.6203 25.9078 57.0084 30.0324 54.2096 33.7944C54.1189 33.9418 53.9603 34.0211 53.8016 34.0211Z" fill="black"/>
<path d="M13.1105 44.3327C13.0312 44.3327 12.9406 44.31 12.8613 44.2647C8.48732 41.9304 6.05105 38.6329 6.01706 34.9729C5.98307 31.7548 7.84142 28.6953 10.8669 26.9842C14.153 25.1259 18.0171 25.2732 21.4392 27.4035C21.6884 27.5621 21.7678 27.8794 21.6091 28.1287C21.4505 28.378 21.1332 28.4573 20.8839 28.2987C17.7904 26.3836 14.3343 26.2477 11.3882 27.9021C8.70261 29.4205 7.04822 32.1174 7.08222 34.9502C7.11621 38.2023 9.34851 41.1712 13.3712 43.3128C13.6318 43.4488 13.7224 43.7661 13.5865 44.0267C13.4845 44.2307 13.3032 44.3327 13.1105 44.3327Z" fill="black"/>
<path d="M31.2299 24.8316C28.1704 18.6786 22.618 22.9166 26.7087 25.9534L31.2299 24.8316Z" fill="white"/>
<path d="M26.6629 26.0211C25.4844 25.1485 24.9745 24.0834 25.2465 23.0975C25.4731 22.2817 26.2097 21.7038 27.1388 21.6131C28.6799 21.4658 30.2323 22.6556 31.2975 24.7973L31.1502 24.8653C30.119 22.7916 28.6232 21.6358 27.1502 21.7718C26.3003 21.8511 25.6091 22.3837 25.4051 23.1315C25.1445 24.0494 25.6431 25.0579 26.7536 25.8851L26.6629 26.0211Z" fill="#242568"/>
<path d="M25.8588 25.1376C21.9607 23.3019 20.6916 28.2424 25.3942 27.7438L25.8588 25.1376Z" fill="white"/>
<path d="M24.7705 27.8681C23.6033 27.8681 22.7421 27.4828 22.4135 26.803C22.1642 26.2817 22.2775 25.6471 22.7195 25.2166C23.4107 24.5253 24.6005 24.4687 25.8923 25.0806L25.8243 25.2279C24.6005 24.65 23.4787 24.684 22.8441 25.3299C22.4589 25.7265 22.3455 26.2704 22.5722 26.735C22.9234 27.4715 23.9773 27.8228 25.3937 27.6755L25.4164 27.8341C25.1784 27.8568 24.9744 27.8681 24.7705 27.8681Z" fill="#242568"/>
<path d="M24.0458 27.7324C21.009 29.9193 24.2951 32.4576 25.6662 29.3528L24.0458 27.7324Z" fill="white"/>
<path d="M23.9547 30.8822C23.9207 30.8822 23.8867 30.8822 23.8641 30.8822C23.3428 30.8482 22.9122 30.4969 22.7649 29.9984C22.5496 29.2505 23.0142 28.3893 24 27.6754L24.0907 27.8114C23.1615 28.4799 22.7309 29.2845 22.9236 29.953C23.0482 30.3836 23.4221 30.6896 23.8754 30.7236C24.544 30.7689 25.1785 30.2477 25.5864 29.3298L25.7338 29.3978C25.3258 30.327 24.6573 30.8822 23.9547 30.8822Z" fill="#242568"/>
<path d="M26.7083 26.4857C26.595 26.4857 26.493 26.4517 26.391 26.3837C25.0766 25.4092 24.4873 24.1401 24.8159 22.9729C25.0879 21.9871 25.9831 21.2732 27.0936 21.1712C28.8273 21.0013 30.5497 22.293 31.6941 24.6046C31.8188 24.8653 31.7168 25.1826 31.4562 25.3072C31.1955 25.4318 30.8783 25.3299 30.7536 25.0692C29.8131 23.1656 28.476 22.1004 27.1955 22.225C26.527 22.293 25.9944 22.6896 25.8358 23.2562C25.6318 23.9928 26.0624 24.8199 27.0256 25.5338C27.2635 25.7038 27.3089 26.0437 27.1389 26.2704C27.0369 26.4177 26.8783 26.4857 26.7083 26.4857Z" fill="black"/>
<path d="M24.7366 28.31C22.8669 28.31 22.2097 27.4148 22.0057 26.9842C21.6658 26.2817 21.8244 25.4658 22.4023 24.8879C23.2295 24.0494 24.612 23.97 26.0737 24.6613C26.3343 24.7859 26.4477 25.1032 26.323 25.3638C26.1984 25.6244 25.8811 25.7378 25.6205 25.6131C24.3853 25.0352 23.5355 25.2392 23.1389 25.6358C22.8782 25.8964 22.8103 26.2363 22.9462 26.531C23.1502 26.9615 23.8867 27.3695 25.3145 27.2222C25.6091 27.1882 25.8697 27.4035 25.8924 27.6868C25.9264 27.9814 25.7111 28.242 25.4278 28.2647C25.1899 28.2987 24.9519 28.31 24.7366 28.31Z" fill="black"/>
<path d="M23.966 31.3242C23.9207 31.3242 23.8867 31.3242 23.8413 31.3242C23.1275 31.2789 22.5382 30.8029 22.3456 30.1117C22.0736 29.1825 22.6062 28.1287 23.7394 27.3015C23.9773 27.1315 24.3059 27.1882 24.4759 27.4262C24.6459 27.6641 24.5892 27.9927 24.3513 28.1627C23.4447 28.8086 23.2408 29.4432 23.3541 29.8284C23.4221 30.0777 23.6487 30.259 23.9093 30.2704C24.3853 30.3043 24.8612 29.8851 25.1785 29.1485C25.2918 28.8766 25.6091 28.7633 25.8697 28.8766C26.1416 28.9899 26.2549 29.3072 26.1416 29.5678C25.6544 30.6783 24.8498 31.3242 23.966 31.3242Z" fill="black"/>
<path d="M30.5043 47.4374C30.8442 48.5139 32.3853 49.6357 33.7111 49.2165C35.0369 48.7972 35.6374 46.9842 35.2975 45.9077C34.9575 44.8312 33.7904 44.8879 32.4646 45.3071C31.1388 45.7264 30.153 46.361 30.5043 47.4374Z" fill="black"/>
<path d="M39.0254 54.565C38.7988 55.4828 37.8356 56.276 36.5438 56.7633C35.4787 57.1712 34.4362 57.2619 33.677 56.9899C33.1784 56.8086 32.7931 56.4687 32.5892 55.9361C32.0793 54.599 33.0991 52.9786 34.8555 52.31C36.6118 51.6415 38.4475 52.1854 38.9574 53.5225C39.0934 53.8738 39.1048 54.225 39.0254 54.565Z" fill="black"/>
<path d="M39.0254 54.565C38.7988 55.4828 37.8356 56.276 36.5439 56.7633C35.4787 57.1712 34.4362 57.2619 33.677 56.9899C33.881 55.9814 34.7648 55.0069 36.0226 54.531C37.0991 54.1117 38.2096 54.157 39.0254 54.565Z" fill="#EF3750"/>
<path d="M33.983 48.3214L34.3116 50.599C34.3229 50.6896 34.2663 50.7689 34.1756 50.7803C34.1076 50.7916 34.0397 50.7576 34.017 50.701L32.9632 48.65C32.8272 48.378 32.9292 48.0494 33.2011 47.9134C33.4731 47.7774 33.8017 47.8794 33.9377 48.1514C33.9603 48.1967 33.9717 48.2647 33.983 48.3214Z" fill="black"/>
<path d="M34.3456 41.4318C37.0312 42.497 39.0935 44.7406 40.7026 47.8681C41.1558 48.7406 42.1077 49.2392 43.0822 49.1372C48.0114 48.5933 49.983 42.4403 45.915 37.5565C40.6006 31.2562 33.2012 34.5083 32.8725 39.0862C32.8046 40.106 33.4051 41.0579 34.3456 41.4318Z" fill="black"/>
<path d="M29.1897 43.3468C27.626 45.7718 27.2407 48.7973 27.7506 52.276C27.898 53.2505 27.4107 54.2137 26.5495 54.6896C22.2209 57.1032 17.0311 53.2392 17.5184 46.9049C18.1869 38.6896 26.0963 37.0352 29.0311 40.582C29.6657 41.3638 29.7336 42.497 29.1897 43.3468Z" fill="black"/>
<path d="M40.2493 43.9701C39.6147 43.9701 38.9462 43.7435 38.3569 43.1769C38.1643 42.9956 38.153 42.6783 38.3456 42.4857C38.5269 42.2931 38.8442 42.2817 39.0368 42.4744C39.83 43.2336 40.7479 43.0523 41.2804 42.667C41.779 42.3157 42.2096 41.5905 41.813 40.718C41.6997 40.4687 41.8017 40.1854 42.051 40.0721C42.3003 39.9588 42.5836 40.0608 42.6969 40.3101C43.3088 41.6245 42.7082 42.837 41.847 43.4602C41.3938 43.7775 40.8385 43.9701 40.2493 43.9701Z" fill="white"/>
<path d="M23.8301 49.5111C22.9462 49.5111 22.1077 49.1145 21.5865 48.378C21.4278 48.1627 21.4732 47.8568 21.6998 47.6981C21.9151 47.5395 22.221 47.5848 22.3797 47.8114C22.9349 48.582 23.8868 48.6613 24.5893 48.4007C25.2239 48.1627 25.8811 47.5621 25.8018 46.599C25.7791 46.327 25.9717 46.089 26.2437 46.0664C26.5157 46.0437 26.7536 46.2364 26.7763 46.5083C26.8896 47.7548 26.1644 48.8539 24.9406 49.3072C24.5553 49.4432 24.1927 49.5111 23.8301 49.5111Z" fill="white"/>
<path d="M34.663 57.6698C34.4363 57.6698 34.221 57.6471 34.0057 57.6132C33.0766 57.4545 32.3967 56.9219 32.0907 56.1174C31.7848 55.3129 31.8981 54.4177 32.4193 53.5905C32.9066 52.8086 33.6998 52.1741 34.663 51.8115C35.6148 51.4488 36.6346 51.3922 37.5185 51.6528C38.459 51.9248 39.1389 52.5253 39.4448 53.3299C39.7508 54.1344 39.5921 54.9843 39.0029 55.7208C38.5043 56.344 37.7111 56.8766 36.7253 57.2505C36.0001 57.5225 35.2975 57.6698 34.663 57.6698ZM36.374 52.548C35.9434 52.548 35.4902 52.6273 35.0482 52.7973C34.3004 53.0806 33.6998 53.5565 33.3259 54.1457C32.9859 54.6896 32.9066 55.2562 33.0879 55.7435C33.2579 56.1967 33.6318 56.48 34.187 56.5707C34.7876 56.6726 35.5468 56.5593 36.3513 56.2647C37.1559 55.9588 37.8018 55.5282 38.1757 55.0636C38.527 54.6217 38.629 54.1684 38.4477 53.7151C38.2664 53.2279 37.8244 52.8653 37.2125 52.684C36.9519 52.582 36.6686 52.548 36.374 52.548Z" fill="black"/>
<path d="M60.7252 55.9814C62.8668 60.7633 60.3399 63.5168 53.1445 64.242H44.6119C32.0906 63.8228 36.6912 53.4658 57.7224 54.2364C58.9915 54.1117 60.1926 54.8143 60.7252 55.9814Z" fill="black"/>
<g opacity="0.55">
<path opacity="0.55" d="M57.9603 54.327C57.9603 54.9163 57.4731 55.3922 56.8839 55.3808C44.3626 55.1655 38.051 58.9956 38.0963 61.9871C36.0567 58.9729 42.1643 54.0324 56.1813 54.191L57.9603 54.327Z" fill="white"/>
</g>
<path d="M83.0595 64.242H80.7479C80.7479 64.242 73.4165 58.3383 80.7479 52.1854C80.8159 52.1287 80.8726 52.0834 80.9292 52.0267C93.4391 52.3667 98.3457 64.242 83.0595 64.242Z" fill="black"/>
<g opacity="0.55">
<path opacity="0.55" d="M80.7591 52.1854C80.7025 52.242 80.6345 52.2873 80.5778 52.344C80.3738 52.514 80.1925 52.684 80.0112 52.8539C88.9404 53.1145 93.9716 59.2675 90.5042 62.7349C95.4447 59.4488 90.3228 52.446 80.7591 52.1854Z" fill="white"/>
</g>
<path d="M83.0595 64.7632H44.6119C44.6006 64.7632 44.6005 64.7632 44.5892 64.7632C40.8838 64.6386 38.3683 63.6641 37.4844 62.021C37.0085 61.1145 37.0765 60.072 37.711 59.0749C38.7082 57.4771 41.0085 56.072 44.1926 55.1089C47.8413 53.9984 52.5212 53.5224 57.7337 53.7151C58.0283 53.7264 58.2549 53.9757 58.2436 54.259C58.2323 54.5536 57.9943 54.7802 57.6997 54.7689C52.6119 54.5763 48.0453 55.0522 44.4986 56.1173C41.5977 56.9899 39.4561 58.2817 38.6062 59.6301C38.1756 60.31 38.119 60.9559 38.4249 61.5224C39.0935 62.7802 41.4051 63.5961 44.6232 63.7094H83.0595C87.4674 63.7094 90.6062 62.6556 91.6714 60.8199C92.2493 59.8227 92.1813 58.6103 91.4787 57.4091C90.085 54.9955 86.1076 52.5479 80.3853 52.5479C80.0906 52.5479 79.8527 52.31 79.8527 52.0154C79.8527 51.7207 80.0906 51.4828 80.3853 51.4828C86.5382 51.4828 90.8442 54.191 92.3966 56.8652C93.2918 58.4063 93.3598 59.9927 92.5892 61.3298C91.2974 63.5508 87.9207 64.7632 83.0595 64.7632Z" fill="black"/>
<path d="M81.4618 42.973C81.2918 42.973 81.1219 42.8936 81.0199 42.735C80.8612 42.4857 80.9292 42.1684 81.1785 42.0098C83.7394 40.3441 84.0001 38.1798 83.1502 36.8766C82.6969 36.1854 81.9604 35.7322 81.0765 35.6188C80.0227 35.4829 78.8442 35.8115 77.6658 36.582C77.4165 36.7407 77.0992 36.6727 76.9406 36.4234C76.7819 36.1741 76.8499 35.8568 77.0992 35.6982C80.136 33.7378 82.8896 34.5197 84.0567 36.3101C84.6799 37.2732 84.8272 38.4404 84.4873 39.5962C84.1134 40.854 83.1729 41.9985 81.7791 42.905C81.6658 42.939 81.5638 42.973 81.4618 42.973Z" fill="black"/>
<g opacity="0.3">
<path opacity="0.3" d="M77.7563 51.6754C76.9517 51.6188 76.4531 50.7803 76.7818 50.0437C80.9291 41.0126 74.0396 33.7491 74.0396 33.7491L74.3115 33.7264C79.7279 37.0805 83.2407 43.2335 82.9121 52.1854C83.7279 52.2873 84.4985 52.446 85.2237 52.65C83.014 52.1174 79.7619 51.8228 77.7563 51.6754Z" fill="#ABABAB"/>
</g>
<g opacity="0.3">
<path opacity="0.3" d="M83.0595 64.242H82.153C89.4391 63.4262 89.3824 54.5197 86.9915 53.2505C86.9802 53.2505 86.9801 53.2392 86.9801 53.2392C94.5609 56.3213 95.5354 64.242 83.0595 64.242Z" fill="#262626"/>
</g>
<g opacity="0.3">
<path opacity="0.3" d="M82.1076 64.2421H44.6118C44.2719 64.2307 43.9433 64.2081 43.6373 64.1854C43.6373 64.1854 47.6487 58.0098 63.0028 61.2846C63.0028 61.2846 70.5722 62.2251 73.337 60.7293C75.9433 59.3242 76.9064 63.9701 82.1076 64.2421Z" fill="#262626"/>
</g>
<path d="M83.8187 64.231C83.5694 64.2423 83.3201 64.2423 83.0594 64.2423C83.3427 64.2197 83.592 64.2197 83.8187 64.231Z" fill="#7B2A39"/>
<path d="M83.0594 64.3213V64.1627C83.3427 64.1514 83.6034 64.1514 83.8187 64.1514V64.31C83.5807 64.31 83.3314 64.3213 83.0594 64.3213Z" fill="#242568"/>
<g opacity="0.3">
<path opacity="0.3" d="M81.4617 42.4403L79.5353 39.4601L79.2974 38.3836C80.9518 39.6074 83.0934 37.2732 82.6288 35.6188C84.6458 36.9219 84.9178 40.208 81.4617 42.4403Z" fill="#262626"/>
</g>
<path d="M28.1246 14.225C28.1246 14.2137 28.1359 14.1797 28.1359 14.1683C28.2379 13.8511 28.3285 13.6584 28.4419 13.3525C28.5325 13.1145 28.5892 12.8312 28.6912 12.5819C28.7138 12.5253 28.8725 12.174 28.9291 12.0834C29.1104 11.7434 29.2577 11.3921 29.4617 11.0522C29.473 11.0522 29.473 11.0182 29.473 11.0069C29.473 11.0069 29.4617 10.9955 29.4504 10.9955C29.439 10.9955 29.3937 10.9955 29.3824 10.9842C28.8951 11.0862 28.3739 11.1428 27.8753 11.1882C27.8186 11.1882 27.592 11.2222 27.5693 11.0975L27.3087 9.85106C27.2747 9.68109 27.5127 9.64709 27.6033 9.62443L30.8555 8.98987C31.0708 8.98987 31.0821 9.11451 31.1954 9.25049C31.1954 9.26182 31.2634 9.30715 31.2634 9.31848C31.4107 9.55644 31.422 9.85106 31.4674 10.1117C31.49 10.2363 31.422 10.3156 31.3654 10.429C31.2181 10.8256 31.1048 11.1088 30.9121 11.5168C30.5042 12.1173 30.3229 12.8312 30.0056 13.4658C30.0056 13.4658 30.0056 13.4771 30.0056 13.4885C30.0169 13.5338 30.0736 13.5338 30.0963 13.5338C30.1416 13.5224 30.3229 13.4998 30.3682 13.4885C30.5382 13.4545 30.7082 13.4091 30.8668 13.3638C30.9461 13.3411 31.0368 13.3185 31.1161 13.2845C31.1614 13.2732 31.1954 13.2505 31.2407 13.2505C31.2747 13.2505 31.3087 13.2505 31.3427 13.2505C31.4334 13.2505 31.5127 13.2845 31.592 13.3298C31.6487 13.3638 31.7053 13.4091 31.7506 13.4658C31.7733 13.4885 31.796 13.5224 31.8073 13.5564C31.8186 13.5791 31.8186 13.6131 31.83 13.6358C31.8526 13.7491 31.8866 13.8624 31.9093 13.987C31.9546 14.1797 32.0226 14.3836 32.0566 14.5876C32.0793 14.7349 32.0793 14.8822 31.9546 14.9729C31.83 15.0635 31.66 15.0522 31.524 15.0635C31.354 15.0749 31.1841 15.0975 31.0141 15.1202C30.9461 15.1315 30.7535 15.1655 30.7308 15.1655C30.6628 15.1768 30.5835 15.1995 30.5155 15.2108C30.1642 15.2902 29.8243 15.3808 29.473 15.4601C29.3144 15.4941 29.1557 15.5394 28.9971 15.5734C28.9518 15.5848 28.8951 15.5961 28.8498 15.6074C28.7478 15.6301 28.6118 15.5848 28.5212 15.5281C28.3512 15.4148 28.3285 15.2335 28.2946 15.0522C28.2946 15.0409 28.2379 14.7462 28.2266 14.6329C28.1926 14.5989 28.1359 14.3043 28.1246 14.225Z" fill="black"/>
<path d="M34.6515 7.56214C34.6515 7.55081 34.6742 7.52815 34.6742 7.52815C34.8442 7.34685 34.9688 7.24486 35.1275 7.08622C35.2634 6.95025 35.3881 6.78027 35.5354 6.65563C35.5694 6.62163 35.7847 6.44033 35.8527 6.395C36.0793 6.22503 36.2946 6.04373 36.5326 5.87376C36.5439 5.87376 36.5552 5.8511 36.5552 5.83976C36.5552 5.83976 36.5552 5.82843 36.5439 5.82843C36.5326 5.82843 36.5099 5.80577 36.4986 5.80577C36.136 5.71512 35.7847 5.6018 35.4334 5.46583C35.3994 5.44316 35.2295 5.39784 35.2634 5.30719L35.4787 4.40067C35.5127 4.27602 35.6714 4.33268 35.7507 4.34401L38.1076 4.94458C38.2549 5.01257 38.221 5.09189 38.2436 5.22787C38.2436 5.2392 38.2663 5.28452 38.2663 5.29585C38.2889 5.49982 38.1983 5.70379 38.153 5.88509C38.1303 5.97574 38.0623 6.00974 37.9943 6.06639C37.7677 6.28169 37.6091 6.44033 37.3484 6.6443C36.8952 6.91625 36.5439 7.32418 36.136 7.6528V7.66413C36.1246 7.69812 36.1586 7.70945 36.1813 7.73212C36.2153 7.74345 36.3399 7.77744 36.3739 7.78877C36.4986 7.82277 36.6232 7.84543 36.7479 7.86809C36.8159 7.87942 36.8725 7.89076 36.9405 7.90209C36.9745 7.90209 37.0085 7.91342 37.0312 7.91342C37.0538 7.92475 37.0765 7.93608 37.0991 7.94741C37.1558 7.98141 37.2011 8.02673 37.2351 8.07206C37.2691 8.11738 37.2804 8.16271 37.2918 8.21937C37.2918 8.24203 37.3031 8.27602 37.3031 8.29869C37.3031 8.32135 37.2918 8.33268 37.2918 8.35534C37.2691 8.446 37.2578 8.52532 37.2351 8.61597C37.2011 8.76328 37.1898 8.92192 37.1445 9.05789C37.1105 9.15988 37.0651 9.26186 36.9518 9.28452C36.8385 9.30719 36.7365 9.25053 36.6346 9.2052C36.5212 9.15988 36.3966 9.11455 36.2719 9.08056C36.2266 9.06923 36.0793 9.0239 36.068 9.0239C36.0113 9.01257 35.966 9.00124 35.9093 8.98991C35.6487 8.93325 35.3994 8.87659 35.1388 8.81993C35.0255 8.79727 34.9008 8.77461 34.7875 8.74061C34.7535 8.72928 34.7082 8.72928 34.6742 8.71795C34.5949 8.70662 34.5269 8.6273 34.4816 8.55931C34.4023 8.43466 34.4476 8.31002 34.4816 8.17404C34.4816 8.16271 34.5496 7.94741 34.5609 7.86809C34.5722 7.82277 34.6402 7.6188 34.6515 7.56214Z" fill="black"/>
<path d="M30.6063 3.77743V3.74343C30.6403 3.53947 30.6743 3.41482 30.7083 3.22219C30.7423 3.06355 30.7423 2.89357 30.7763 2.73493C30.7876 2.70094 30.8443 2.47431 30.8669 2.40632C30.9349 2.17969 31.0029 1.95306 31.0822 1.73777C31.0822 1.73777 31.0822 1.7151 31.0822 1.70377L31.0709 1.69244C31.0709 1.69244 31.0369 1.69244 31.0256 1.69244C30.7423 1.80576 30.4363 1.88508 30.1417 1.9644C30.1077 1.9644 29.9717 2.00972 29.9491 1.94173L29.6885 1.23918C29.6431 1.1372 29.7904 1.09187 29.8471 1.06921L31.7395 0.366662C31.8641 0.343999 31.8868 0.411988 31.9661 0.491308C31.9661 0.491308 32.0114 0.513971 32.0114 0.525302C32.1247 0.649948 32.1587 0.831251 32.2154 0.97856C32.238 1.05788 32.2154 1.10321 32.1927 1.18253C32.1361 1.43182 32.1021 1.62445 32.0227 1.87374C31.8414 2.27035 31.7961 2.7236 31.6715 3.13153C31.6715 3.13153 31.6715 3.13154 31.6715 3.14287C31.6828 3.16553 31.7168 3.16553 31.7281 3.16553C31.7508 3.1542 31.8641 3.1202 31.8868 3.10887C31.9887 3.07488 32.0794 3.02955 32.1701 2.98423C32.2154 2.96156 32.2607 2.9389 32.3174 2.91624C32.34 2.90491 32.3627 2.89357 32.3853 2.88224C32.408 2.88224 32.4307 2.87091 32.442 2.87091C32.4987 2.87091 32.544 2.87091 32.6006 2.89357C32.646 2.90491 32.68 2.9389 32.7026 2.96156C32.714 2.97289 32.7366 2.99556 32.748 3.00689C32.7593 3.01822 32.7593 3.04088 32.7706 3.05221C32.7933 3.1202 32.8273 3.18819 32.8499 3.25618C32.8953 3.3695 32.9519 3.48281 32.9972 3.60746C33.0199 3.68678 33.0426 3.77743 32.9746 3.85675C32.9066 3.92474 32.8046 3.93607 32.7253 3.95873C32.6233 3.98139 32.5213 4.01539 32.4193 4.04938C32.3853 4.06071 32.2607 4.10604 32.2494 4.10604C32.204 4.11737 32.1701 4.14003 32.1247 4.1627C31.9208 4.24202 31.7168 4.33267 31.5242 4.41199C31.4335 4.44598 31.3429 4.49131 31.2522 4.5253C31.2182 4.53663 31.1955 4.54797 31.1616 4.5593C31.1049 4.58196 31.0142 4.57063 30.9576 4.53663C30.8443 4.49131 30.8103 4.37799 30.7763 4.27601C30.7763 4.27601 30.7196 4.09471 30.697 4.02672C30.6856 3.99272 30.629 3.82275 30.6063 3.77743Z" fill="black"/>
<path d="M115.039 27.6787H111.819L111.286 29.2194H109.583L112.491 21.1222H114.379L117.287 29.2194H115.572L115.039 27.6787ZM114.599 26.3813L113.429 22.9988L112.259 26.3813H114.599ZM120.829 29.3237C120.304 29.3237 119.833 29.231 119.416 29.0457C118.999 28.8526 118.667 28.5939 118.42 28.2695C118.18 27.9452 118.049 27.5861 118.026 27.1922H119.659C119.69 27.4393 119.81 27.644 120.018 27.8062C120.235 27.9683 120.501 28.0494 120.818 28.0494C121.127 28.0494 121.366 27.9877 121.536 27.8641C121.714 27.7405 121.802 27.5822 121.802 27.3891C121.802 27.1806 121.694 27.0262 121.478 26.9258C121.269 26.8177 120.934 26.7018 120.47 26.5783C119.991 26.4624 119.598 26.3427 119.289 26.2192C118.987 26.0956 118.725 25.9064 118.501 25.6515C118.285 25.3967 118.177 25.053 118.177 24.6206C118.177 24.2653 118.277 23.941 118.478 23.6475C118.686 23.354 118.98 23.1224 119.358 22.9525C119.744 22.7826 120.196 22.6976 120.713 22.6976C121.478 22.6976 122.088 22.8907 122.544 23.2768C122.999 23.6552 123.25 24.1688 123.297 24.8175H121.744C121.721 24.5626 121.613 24.3618 121.42 24.2151C121.235 24.0607 120.984 23.9834 120.667 23.9834C120.374 23.9834 120.146 24.0375 119.984 24.1456C119.829 24.2537 119.752 24.4043 119.752 24.5974C119.752 24.8136 119.86 24.9797 120.076 25.0955C120.293 25.2036 120.629 25.3156 121.084 25.4314C121.548 25.5473 121.93 25.667 122.231 25.7905C122.532 25.9141 122.791 26.1072 123.007 26.3697C123.231 26.6246 123.347 26.9644 123.355 27.3891C123.355 27.7598 123.25 28.0919 123.042 28.3854C122.841 28.6788 122.548 28.9105 122.161 29.0804C121.783 29.2426 121.339 29.3237 120.829 29.3237ZM126.574 24.134V27.2386C126.574 27.4548 126.624 27.6131 126.725 27.7135C126.833 27.8062 127.01 27.8525 127.258 27.8525H128.011V29.2194H126.991C125.624 29.2194 124.941 28.5553 124.941 27.227V24.134H124.176V22.8019H124.941V21.2149H126.574V22.8019H128.011V24.134H126.574ZM132.027 29.3237C131.409 29.3237 130.853 29.1885 130.359 28.9182C129.864 28.6402 129.474 28.2502 129.189 27.7482C128.911 27.2463 128.772 26.6671 128.772 26.0106C128.772 25.3542 128.914 24.775 129.2 24.273C129.494 23.7711 129.891 23.3849 130.393 23.1146C130.895 22.8366 131.455 22.6976 132.073 22.6976C132.691 22.6976 133.251 22.8366 133.753 23.1146C134.255 23.3849 134.648 23.7711 134.934 24.273C135.228 24.775 135.374 25.3542 135.374 26.0106C135.374 26.6671 135.224 27.2463 134.923 27.7482C134.629 28.2502 134.228 28.6402 133.718 28.9182C133.216 29.1885 132.652 29.3237 132.027 29.3237ZM132.027 27.9104C132.32 27.9104 132.594 27.8409 132.849 27.7019C133.112 27.5552 133.32 27.3389 133.475 27.0532C133.629 26.7675 133.706 26.4199 133.706 26.0106C133.706 25.4006 133.544 24.9333 133.22 24.609C132.903 24.2769 132.513 24.1109 132.05 24.1109C131.586 24.1109 131.196 24.2769 130.88 24.609C130.571 24.9333 130.416 25.4006 130.416 26.0106C130.416 26.6207 130.567 27.0918 130.868 27.4239C131.177 27.7482 131.563 27.9104 132.027 27.9104ZM140.12 22.7092C140.885 22.7092 141.503 22.9525 141.974 23.439C142.445 23.9178 142.68 24.5897 142.68 25.4546V29.2194H141.059V25.6747C141.059 25.165 140.931 24.775 140.676 24.5047C140.422 24.2267 140.074 24.0877 139.634 24.0877C139.186 24.0877 138.831 24.2267 138.568 24.5047C138.313 24.775 138.186 25.165 138.186 25.6747V29.2194H136.564V22.8019H138.186V23.6012C138.402 23.3231 138.676 23.1069 139.008 22.9525C139.348 22.7903 139.719 22.7092 140.12 22.7092Z" fill="black"/>
<path d="M120.429 46.9069H114.319L113.339 49.799H109.164L115.088 33.4262H119.706L125.63 49.799H121.409L120.429 46.9069ZM119.403 43.8283L117.374 37.8343L115.368 43.8283H119.403ZM135.363 36.6448C136.887 36.6448 138.1 37.1423 139.002 38.1375C139.919 39.117 140.378 40.4698 140.378 42.1957V49.799H136.413V42.7321C136.413 41.8614 136.187 41.185 135.736 40.703C135.285 40.221 134.679 39.98 133.917 39.98C133.155 39.98 132.549 40.221 132.098 40.703C131.647 41.185 131.422 41.8614 131.422 42.7321V49.799H127.433V36.7847H131.422V38.5106C131.826 37.9353 132.37 37.4844 133.054 37.1579C133.738 36.8158 134.508 36.6448 135.363 36.6448ZM145.155 35.432C144.455 35.432 143.88 35.2299 143.429 34.8256C142.994 34.4058 142.776 33.8927 142.776 33.2863C142.776 32.6643 142.994 32.1512 143.429 31.747C143.88 31.3271 144.455 31.1172 145.155 31.1172C145.839 31.1172 146.399 31.3271 146.834 31.747C147.285 32.1512 147.511 32.6643 147.511 33.2863C147.511 33.8927 147.285 34.4058 146.834 34.8256C146.399 35.2299 145.839 35.432 145.155 35.432ZM147.137 36.7847V49.799H143.149V36.7847H147.137ZM166.634 36.6448C168.251 36.6448 169.533 37.1346 170.482 38.1141C171.446 39.0937 171.928 40.4542 171.928 42.1957V49.799H167.963V42.7321C167.963 41.8925 167.737 41.2472 167.287 40.7963C166.851 40.3298 166.245 40.0966 165.467 40.0966C164.69 40.0966 164.076 40.3298 163.625 40.7963C163.189 41.2472 162.972 41.8925 162.972 42.7321V49.799H159.007V42.7321C159.007 41.8925 158.781 41.2472 158.331 40.7963C157.895 40.3298 157.289 40.0966 156.511 40.0966C155.734 40.0966 155.12 40.3298 154.669 40.7963C154.233 41.2472 154.016 41.8925 154.016 42.7321V49.799H150.028V36.7847H154.016V38.4173C154.42 37.8731 154.949 37.4455 155.602 37.1346C156.255 36.8081 156.993 36.6448 157.817 36.6448C158.797 36.6448 159.668 36.8547 160.43 37.2745C161.207 37.6943 161.813 38.2929 162.249 39.0704C162.7 38.3551 163.314 37.7721 164.091 37.3212C164.869 36.8702 165.716 36.6448 166.634 36.6448ZM173.924 43.2685C173.924 41.9313 174.173 40.7574 174.67 39.7467C175.184 38.7361 175.875 37.9587 176.746 37.4144C177.617 36.8702 178.589 36.5981 179.662 36.5981C180.579 36.5981 181.38 36.7847 182.064 37.1579C182.764 37.5311 183.3 38.0208 183.673 38.6272V36.7847H187.661V49.799H183.673V47.9564C183.284 48.5628 182.74 49.0526 182.041 49.4258C181.356 49.799 180.556 49.9855 179.638 49.9855C178.581 49.9855 177.617 49.7134 176.746 49.1692C175.875 48.6095 175.184 47.8243 174.67 46.8136C174.173 45.7874 173.924 44.6057 173.924 43.2685ZM183.673 43.2918C183.673 42.2967 183.393 41.5115 182.834 40.9362C182.289 40.3609 181.621 40.0733 180.828 40.0733C180.035 40.0733 179.358 40.3609 178.799 40.9362C178.254 41.496 177.982 42.2734 177.982 43.2685C177.982 44.2636 178.254 45.0566 178.799 45.6475C179.358 46.2228 180.035 46.5104 180.828 46.5104C181.621 46.5104 182.289 46.2228 182.834 45.6475C183.393 45.0722 183.673 44.287 183.673 43.2918ZM194.535 32.5399V49.799H190.547V32.5399H194.535Z" fill="black"/>
<path d="M166.277 57.8194C165.948 57.8194 165.65 57.7631 165.385 57.6504C165.123 57.5377 164.916 57.3755 164.763 57.1637C164.609 56.9519 164.531 56.7017 164.526 56.4133H165.54C165.554 56.6071 165.621 56.7603 165.743 56.873C165.869 56.9857 166.04 57.042 166.257 57.042C166.477 57.042 166.651 56.9902 166.777 56.8865C166.903 56.7784 166.966 56.6387 166.966 56.4674C166.966 56.3277 166.924 56.2128 166.838 56.1226C166.752 56.0325 166.644 55.9626 166.514 55.9131C166.387 55.859 166.212 55.8004 165.986 55.7373C165.68 55.6472 165.43 55.5593 165.236 55.4737C165.047 55.3835 164.882 55.2506 164.742 55.0748C164.607 54.8945 164.54 54.6557 164.54 54.3582C164.54 54.0788 164.609 53.8355 164.749 53.6282C164.889 53.4208 165.085 53.2631 165.337 53.1549C165.59 53.0423 165.878 52.9859 166.203 52.9859C166.689 52.9859 167.084 53.1054 167.386 53.3442C167.692 53.5786 167.861 53.9076 167.893 54.3312H166.852C166.843 54.169 166.773 54.036 166.642 53.9324C166.516 53.8242 166.347 53.7701 166.135 53.7701C165.95 53.7701 165.801 53.8174 165.689 53.9121C165.581 54.0067 165.527 54.1442 165.527 54.3244C165.527 54.4506 165.567 54.5565 165.648 54.6422C165.734 54.7233 165.837 54.7909 165.959 54.845C166.085 54.8945 166.261 54.9531 166.486 55.0207C166.793 55.1109 167.043 55.201 167.237 55.2911C167.431 55.3813 167.597 55.5165 167.737 55.6967C167.877 55.877 167.947 56.1136 167.947 56.4066C167.947 56.6589 167.881 56.8933 167.751 57.1096C167.62 57.3259 167.428 57.4994 167.176 57.6301C166.924 57.7563 166.624 57.8194 166.277 57.8194ZM168.524 55.886C168.524 55.5075 168.598 55.1717 168.747 54.8788C168.9 54.5858 169.105 54.3605 169.362 54.2028C169.623 54.045 169.914 53.9662 170.234 53.9662C170.514 53.9662 170.757 54.0225 170.964 54.1352C171.176 54.2478 171.345 54.3898 171.471 54.561V54.027H172.424V57.7721H171.471V57.2245C171.35 57.4003 171.181 57.5468 170.964 57.6639C170.752 57.7766 170.507 57.8329 170.227 57.8329C169.912 57.8329 169.623 57.7518 169.362 57.5896C169.105 57.4273 168.9 57.1997 168.747 56.9068C168.598 56.6094 168.524 56.2691 168.524 55.886ZM171.471 55.8995C171.471 55.6697 171.426 55.4737 171.336 55.3114C171.246 55.1447 171.124 55.0185 170.971 54.9329C170.818 54.8427 170.653 54.7976 170.477 54.7976C170.302 54.7976 170.139 54.8405 169.991 54.9261C169.842 55.0117 169.72 55.1379 169.626 55.3047C169.536 55.4669 169.49 55.6607 169.49 55.886C169.49 56.1114 169.536 56.3097 169.626 56.4809C169.72 56.6477 169.842 56.7761 169.991 56.8662C170.144 56.9564 170.306 57.0014 170.477 57.0014C170.653 57.0014 170.818 56.9586 170.971 56.873C171.124 56.7829 171.246 56.6567 171.336 56.4944C171.426 56.3277 171.471 56.1294 171.471 55.8995ZM175.424 53.9729C175.87 53.9729 176.231 54.1149 176.506 54.3988C176.781 54.6782 176.918 55.0703 176.918 55.5751V57.7721H175.972V55.7035C175.972 55.4061 175.897 55.1785 175.749 55.0207C175.6 54.8585 175.397 54.7774 175.14 54.7774C174.879 54.7774 174.671 54.8585 174.518 55.0207C174.369 55.1785 174.295 55.4061 174.295 55.7035V57.7721H173.349V54.027H174.295V54.4934C174.421 54.3312 174.581 54.205 174.775 54.1149C174.973 54.0202 175.19 53.9729 175.424 53.9729ZM177.575 55.8995C177.575 55.512 177.654 55.174 177.811 54.8855C177.969 54.5926 178.188 54.3673 178.467 54.2095C178.746 54.0473 179.066 53.9662 179.427 53.9662C179.891 53.9662 180.274 54.0833 180.576 54.3177C180.883 54.5475 181.088 54.872 181.191 55.2911H180.171C180.116 55.1289 180.024 55.0027 179.893 54.9126C179.767 54.8179 179.609 54.7706 179.42 54.7706C179.15 54.7706 178.936 54.8698 178.778 55.0681C178.62 55.2618 178.541 55.539 178.541 55.8995C178.541 56.2556 178.62 56.5327 178.778 56.731C178.936 56.9248 179.15 57.0217 179.42 57.0217C179.803 57.0217 180.053 56.8505 180.171 56.508H181.191C181.088 56.9136 180.883 57.2358 180.576 57.4747C180.27 57.7135 179.887 57.8329 179.427 57.8329C179.066 57.8329 178.746 57.7541 178.467 57.5963C178.188 57.4341 177.969 57.2088 177.811 56.9203C177.654 56.6274 177.575 56.2871 177.575 55.8995ZM182.987 54.8044V56.6161C182.987 56.7423 183.016 56.8347 183.074 56.8933C183.138 56.9474 183.241 56.9744 183.385 56.9744H183.825V57.7721H183.23C182.432 57.7721 182.033 57.3845 182.033 56.6094V54.8044H181.587V54.027H182.033V53.1009H182.987V54.027H183.825V54.8044H182.987ZM188.041 54.027V57.7721H187.088V57.2989C186.966 57.4611 186.806 57.5896 186.608 57.6842C186.414 57.7743 186.202 57.8194 185.972 57.8194C185.68 57.8194 185.42 57.7586 185.195 57.6369C184.97 57.5107 184.792 57.3282 184.661 57.0893C184.535 56.846 184.472 56.5575 184.472 56.224V54.027H185.418V56.0888C185.418 56.3863 185.492 56.6161 185.641 56.7784C185.79 56.9361 185.993 57.015 186.25 57.015C186.511 57.015 186.716 56.9361 186.865 56.7784C187.014 56.6161 187.088 56.3863 187.088 56.0888V54.027H188.041ZM189.921 54.6084C190.043 54.4101 190.201 54.2546 190.394 54.1419C190.593 54.0293 190.818 53.9729 191.07 53.9729V54.9667H190.82C190.523 54.9667 190.298 55.0365 190.144 55.1762C189.996 55.3159 189.921 55.5593 189.921 55.9063V57.7721H188.975V54.027H189.921V54.6084ZM195.291 54.027L192.972 59.5432H191.965L192.776 57.6775L191.275 54.027H192.337L193.303 56.6432L194.284 54.027H195.291Z" fill="black"/>
</g>
<defs>
<clipPath id="clip0">
<rect width="196" height="69.3258" fill="white" transform="translate(0 0.366638)"/>
</clipPath>
</defs>
</svg>
